<svg width="332" height="80" viewBox="0 0 332 80" xmlns="http://www.w3.org/2000/svg" xmlns:xlink="http://www.w3.org/1999/xlink"><!--Generator: Sketch 39 (31667) - http://www.bohemiancoding.com/sketch--><title>logo</title><defs><path id="a" d="M18.13.33H.035v18.11H18.13V.33z"/></defs><g fill="none" fill-rule="evenodd"><path d="M93.476 30.2c-.467 0-.632.164-.632.631v1.499c0 .467.165.632.632.632H98.8v19.212c0 .468.166.667.597.667h2.064c.434 0 .6-.2.6-.667V32.962h5.323c.435 0 .634-.165.634-.632V30.83c0-.467-.2-.631-.634-.631H93.476zM111.443 40.824c0-1.333.8-2.235 3.33-2.235 2.495 0 3.327.902 3.327 2.235v2.096h-6.657v-2.096zm9.617-.201c0-2.73-1.597-4.563-6.288-4.563-4.726 0-6.422 1.833-6.422 4.563v7.923c0 2.732 1.628 4.564 6.356 4.564 4.721 0 6.354-1.832 6.354-4.564v-.566c0-.433-.2-.633-.634-.633h-1.695c-.467 0-.63.2-.63.633v.365c0 1.368-.668 2.234-3.329 2.234-2.665 0-3.329-.866-3.329-2.234v-3.06h9.05c.401 0 .567-.203.567-.6v-4.062zM128.348 30.232c0-.466-.167-.667-.602-.667h-1.929c-.465 0-.633.201-.633.667v21.94c0 .47.168.67.633.67h1.929c.435 0 .602-.2.602-.67v-21.94zM135.8 40.824c0-1.333.798-2.235 3.328-2.235 2.496 0 3.326.902 3.326 2.235v2.096H135.8v-2.096zm9.616-.201c0-2.73-1.598-4.563-6.288-4.563-4.724 0-6.424 1.833-6.424 4.563v7.923c0 2.732 1.631 4.564 6.357 4.564 4.725 0 6.355-1.832 6.355-4.564v-.566c0-.433-.2-.633-.633-.633h-1.697c-.465 0-.632.2-.632.633v.365c0 1.368-.667 2.234-3.326 2.234-2.66 0-3.328-.866-3.328-2.234v-3.06h9.05c.397 0 .566-.203.566-.6v-4.062zM156.196 43.485l5.889-6.493c.3-.298.167-.668-.299-.668h-2.097c-.465 0-.764.339-1.032.637l-5.022 5.426h-.933V30.2c0-.432-.167-.634-.598-.634h-1.962c-.435 0-.6.202-.6.634v22.01c0 .433.165.632.6.632h1.962c.43 0 .598-.2.598-.632v-7.424h.965l5.659 7.424c.266.334.496.632.965.632h2.128c.431 0 .532-.332.298-.632l-6.52-8.724zM174.962 48.28c0 1.433-.998 2.231-3.493 2.231-2.496 0-3.494-.798-3.494-2.232v-7.39c0-1.43.998-2.232 3.494-2.232 2.495 0 3.493.801 3.493 2.231v7.391zm-10.147.266c0 2.732 1.962 4.564 6.654 4.564 4.69 0 6.656-1.832 6.656-4.564v-7.922c0-2.732-1.967-4.563-6.656-4.563-4.692 0-6.654 1.831-6.654 4.563v7.922zM183.113 36.324c-.466 0-.631.201-.631.637v15.212c0 .468.165.668.631.668h1.933c.43 0 .599-.2.599-.668V40.587c.662-.565 2.193-1.694 4.322-1.694 1.828 0 2.462.83 2.462 2.197v11.083c0 .468.202.668.632.668h1.932c.432 0 .598-.2.598-.668V41.054c0-.135 0-.298-.032-.431.63-.567 2.161-1.73 4.356-1.73 1.832 0 2.465.83 2.465 2.197v11.083c0 .468.2.668.663.668h1.9c.43 0 .63-.2.63-.668V40.322c0-2.464-1.63-4.262-4.724-4.262-3.162 0-4.892 1.564-5.69 2.263-.663-1.362-2.098-2.263-4.259-2.263-2.761 0-4.423 1.2-5.326 1.963l-.066-1.062c-.032-.436-.165-.637-.63-.637h-1.765z" fill="#0E1161"/><path d="M221.376 36.525c0 .436.137.634.601.634h1.962c.433 0 .602-.198.602-.634V35.06c0-2.73-1.8-5.127-7.224-5.127-5.422 0-7.154 2.397-7.154 5.127v1.901c0 2.063 1.499 3.56 2.963 4.128l5.622 2.164c1.301.498 2.795 1.065 2.795 2.73v1.564c0 1.799-1.297 2.832-4.292 2.832s-4.258-1.033-4.258-2.832v-1.499c0-.466-.166-.665-.6-.665h-1.963c-.431 0-.628.199-.628.665v1.933c0 2.73 1.928 5.128 7.485 5.128 5.556 0 7.452-2.398 7.452-5.128v-2.764c0-2.463-1.667-3.763-3.66-4.53l-6.056-2.296c-.7-.265-1.696-.698-1.696-2.231v-.666c0-1.799 1.095-2.829 4.026-2.829 2.928 0 4.023 1.03 4.023 2.829v1.031zM232.158 30.232c0-.466-.167-.667-.6-.667h-1.928c-.466 0-.632.201-.632.667v21.94c0 .47.166.67.632.67h1.929c.432 0 .599-.2.599-.67v-21.94zM246.664 48.28c0 1.433-.995 2.231-3.493 2.231-2.493 0-3.494-.798-3.494-2.232v-7.39c0-1.43 1-2.232 3.494-2.232 2.498 0 3.493.801 3.493 2.231v7.391zm-10.147.266c0 2.732 1.966 4.564 6.654 4.564 4.694 0 6.656-1.832 6.656-4.564v-7.922c0-2.732-1.962-4.563-6.656-4.563-4.688 0-6.654 1.831-6.654 4.563v7.922zM260.172 52.841c.401 0 .502-.164.633-.597l5.323-15.25c.135-.434-.131-.67-.563-.67h-1.831c-.431 0-.568.267-.698.67l-3.327 9.59c-.3.796-.533 2.196-.566 2.428-.034-.232-.2-1.529-.502-2.463l-3.16-9.555c-.134-.403-.299-.67-.728-.67h-2.033c-.43 0-.697.236-.565.67l5.124 15.25c.134.433.232.597.665.597h2.228zM271.555 40.824c0-1.333.799-2.235 3.327-2.235 2.496 0 3.328.902 3.328 2.235v2.096h-6.655v-2.096zm9.615-.2c0-2.731-1.597-4.564-6.288-4.564-4.726 0-6.42 1.833-6.42 4.563v7.923c0 2.732 1.627 4.564 6.353 4.564 4.725 0 6.355-1.832 6.355-4.564v-.566c0-.433-.201-.633-.633-.633h-1.698c-.465 0-.63.2-.63.633v.365c0 1.368-.668 2.234-3.327 2.234-2.662 0-3.327-.866-3.327-2.234v-3.06h9.048c.401 0 .567-.203.567-.6v-4.062zM285.926 36.324c-.465 0-.632.201-.632.637v15.212c0 .468.167.668.632.668h1.93c.434 0 .6-.2.6-.668V40.587c.73-.565 2.396-1.694 4.526-1.694 1.83 0 2.461.83 2.461 2.197v11.083c0 .468.2.668.632.668h1.93c.435 0 .598-.2.598-.668V40.322c0-2.464-1.594-4.262-4.69-4.262-2.764 0-4.593 1.168-5.524 1.963l-.064-1.062c-.035-.436-.17-.637-.634-.637h-1.765zM306.291 30.232c0-.466-.167-.667-.6-.667h-1.927c-.467 0-.636.201-.636.667v2.997c0 .432.169.633.636.633h1.926c.434 0 .601-.2.601-.633v-2.997zm0 6.76c0-.467-.167-.667-.6-.667h-1.927c-.467 0-.636.2-.636.668v15.18c0 .47.169.668.636.668h1.926c.434 0 .601-.198.601-.668v-15.18zM314.177 36.994c0-.469-.202-.67-.632-.67h-1.93c-.466 0-.6.201-.6.67v17.748c0 1.398-.93 2.228-3.426 2.228h-.266c-.433 0-.635.203-.635.633v1.4c0 .466.202.633.635.633h.266c4.693 0 6.588-1.832 6.588-4.562v-18.08zm0-6.76c0-.466-.166-.668-.6-.668h-1.962c-.432 0-.6.202-.6.668v2.995c0 .434.168.633.6.633h1.963c.433 0 .6-.2.6-.633v-2.995zM321.597 40.824c0-1.333.799-2.235 3.326-2.235 2.496 0 3.327.902 3.327 2.235v2.096h-6.653v-2.096zm9.616-.2c0-2.731-1.597-4.564-6.29-4.564-4.727 0-6.422 1.833-6.422 4.563v7.923c0 2.732 1.632 4.564 6.358 4.564 4.725 0 6.354-1.832 6.354-4.564v-.566c0-.433-.2-.633-.632-.633h-1.698c-.47 0-.633.2-.633.633v.365c0 1.368-.665 2.234-3.327 2.234-2.66 0-3.326-.866-3.326-2.234v-3.06h9.05c.397 0 .566-.203.566-.6v-4.062z" fill="#00B1E9"/><path d="M4.84 44.228c0-9.942 8.054-18.002 17.99-18.002 9.934 0 17.988 8.06 17.988 18.002 0 9.943-8.054 18.003-17.989 18.003S4.84 54.171 4.84 44.228" fill="#B6EEFB"/><path d="M24.709 34.947c0-12.285 9.951-22.243 22.226-22.243 7.288 0 13.757 3.509 17.81 8.931a8.387 8.387 0 0 0-4.791 7.58c0 4.632 3.752 8.385 8.38 8.385.227 0 .452-.008.675-.026C67.71 48.62 58.323 57.19 46.935 57.19c-12.275 0-22.226-9.957-22.226-22.243" fill="#54DCF6"/><path d="M59.954 29.215a8.386 8.386 0 0 1 4.79-7.58 22.157 22.157 0 0 1 4.418 13.312c0 .889-.052 1.765-.153 2.627a8.355 8.355 0 0 1-.675.026c-4.628 0-8.38-3.753-8.38-8.385" fill="#00B1E9"/><path d="M64.744 21.635a8.343 8.343 0 0 1 3.59-.806c4.628 0 8.38 3.755 8.38 8.386a8.383 8.383 0 0 1-7.705 8.358c.101-.86.153-1.737.153-2.626 0-4.992-1.643-9.6-4.418-13.312" fill="#99E8F9"/><g transform="translate(36.76 .255)"><mask id="b" fill="white"><use xlink:href="#a"/></mask><path d="M17.82 7.021c.203.754.31 1.546.31 2.364a9.047 9.047 0 1 1-18.097 0C.034 4.383 4.086.329 9.083.329c4.18 0 7.7 2.837 8.738 6.692" fill="#0E1161" mask="url(#b)"/></g><path d="M3.282 54.698c0-5.653 4.579-10.235 10.228-10.235 5.648 0 10.227 4.582 10.227 10.235s-4.58 10.235-10.227 10.235c-5.65 0-10.228-4.582-10.228-10.235" fill="#00C1EE"/><path d="M22.697 6.937a5.494 5.494 0 0 1 5.492-5.496 5.494 5.494 0 0 1 5.492 5.496 5.494 5.494 0 0 1-5.492 5.496 5.494 5.494 0 0 1-5.492-5.496" fill="#99E8F9"/><path d="M59.746 13.172a3.636 3.636 0 0 1 3.635-3.637 3.636 3.636 0 0 1 3.633 3.637 3.636 3.636 0 0 1-3.633 3.637 3.636 3.636 0 0 1-3.635-3.637" fill="#00B1E9"/><path d="M5.969 20.051c0-4.86 3.937-8.801 8.794-8.801 4.857 0 8.794 3.94 8.794 8.801 0 4.86-3.937 8.8-8.794 8.8-4.857 0-8.794-3.94-8.794-8.8" fill="#54DCF6"/><path d="M0 31.222a3.966 3.966 0 0 1 3.964-3.966 3.966 3.966 0 0 1 3.965 3.966 3.966 3.966 0 0 1-3.965 3.968A3.966 3.966 0 0 1 0 31.222M51.455 39.891c-.445 8.257-7.276 14.815-15.637 14.815a15.58 15.58 0 0 1-8.016-2.205C30.337 44.76 37.617 39.17 46.2 39.17c1.822 0 3.584.252 5.255.722" fill="#0E1161"/><path d="M26.842 58.54c0-2.108.337-4.139.96-6.039a15.579 15.579 0 0 0 8.015 2.205c8.362 0 15.193-6.558 15.638-14.815 8.138 2.292 14.103 9.774 14.103 18.65 0 10.698-8.667 19.372-19.358 19.372S26.842 69.24 26.842 58.54" fill="#00C1EE"/><path d="M20.156 39.034c0-8.656 7.012-15.673 15.661-15.673 8.65 0 15.661 7.017 15.661 15.673 0 .288-.007.573-.023.857a19.382 19.382 0 0 0-5.255-.722c-8.584 0-15.862 5.59-18.398 13.332a15.668 15.668 0 0 1-7.646-13.467" fill="#00B1E9"/><path d="M28.885 72.466a6.618 6.618 0 0 1 6.616-6.62 6.618 6.618 0 0 1 6.616 6.62 6.618 6.618 0 0 1-6.616 6.62 6.618 6.618 0 0 1-6.616-6.62" fill="#0E1161"/><path d="M56.952 61.553a6.561 6.561 0 0 1 6.56-6.564 6.561 6.561 0 0 1 6.558 6.564 6.56 6.56 0 0 1-6.559 6.564 6.56 6.56 0 0 1-6.559-6.564" fill="#99E8F9"/><path d="M64.182 46.813a6.728 6.728 0 0 1 6.726-6.732 6.728 6.728 0 0 1 6.725 6.732c0 3.716-3.01 6.73-6.725 6.73a6.728 6.728 0 0 1-6.726-6.73" fill="#00B1E9"/><path d="M14.853 69.425a3.635 3.635 0 0 1 3.633-3.637 3.635 3.635 0 0 1 3.634 3.637 3.636 3.636 0 0 1-3.634 3.638 3.636 3.636 0 0 1-3.633-3.638" fill="#54DCF6"/></g></svg>